<svg width="20" height="20" viewBox="0 0 20 20" fill="none" xmlns="http://www.w3.org/2000/svg">
    <path fill-rule="evenodd" clip-rule="evenodd"
          d="M11.7066 5.04V7.69334C11.7066 8.06882 11.4023 8.37334 11.0266 8.37334H8.37334V11.0267C8.37334 11.4021 8.06897 11.7067 7.69334 11.7067H5.04V14H8.18666V15.04H4.68C4.30451 15.04 4 14.7356 4 14.36V11.3467C4 10.971 4.30451 10.6667 4.68 10.6667H7.33334V8.01334C7.33334 7.63778 7.63778 7.33334 8.01334 7.33334H10.6666V4.68C10.6666 4.30434 10.9712 4 11.3466 4H14.36C14.7357 4 15.04 4.30451 15.04 4.68V7.85334H14V5.04H11.7066ZM12.3334 9.68C12.3334 9.30451 12.6377 9 13.0134 9H16.0266C16.4023 9 16.7066 9.30451 16.7066 9.68V15.6933C16.7066 16.0689 16.4022 16.3733 16.0266 16.3733H10.0133C9.63785 16.3733 9.33334 16.069 9.33334 15.6933V13.0133C9.33334 12.6377 9.63785 12.3333 10.0133 12.3333H12.3334V9.68ZM13.3734 10.04V12.6933C13.3734 13.0691 13.0687 13.3733 12.6934 13.3733H10.3733V15.3333H15.6666V10.04H13.3734Z"
          fill="#6C707E"/>
</svg>
