<svg width="40" height="40" viewBox="0 0 30 30" fill="none" xmlns="http://www.w3.org/2000/svg">
    <g clip-path="url(#clip0_376_101)">
        <path fill-rule="evenodd" clip-rule="evenodd"
              d="M11 13H5V8.5H21.5V13H16.07V22C16.07 23.6967 16.4974 25.5 18.5 25.5C19.8174 25.5 20.9421 24.7523 22 24L24.5 27.5C22.5746 29.1353 20.02 30.0371 17.5 30C15.5108 30.0557 13.6243 29.4703 12.33 27.87C10.9127 26.1075 11 24.1428 11 22V13Z"
              fill="#3574F0"/>
        <path d="M13.5699 6C15.2268 6 16.5699 4.65685 16.5699 3C16.5699 1.34315 15.2268 0 13.5699 0C11.9131 0 10.5699 1.34315 10.5699 3C10.5699 4.65685 11.9131 6 13.5699 6Z"
              fill="#3574F0"/>
    </g>
    <defs>
        <clipPath id="clip0_376_101">
            <rect width="30" height="30" fill="white"/>
        </clipPath>
    </defs>
</svg>
