<svg width="20" height="20" viewBox="0 0 20 20" fill="none" xmlns="http://www.w3.org/2000/svg">
    <path d="M6.12674 13.0969H12.1788V12.0569H6.12674V13.0969Z" fill="#CED0D6"/>
    <path d="M13.9381 10.4316H6.13821V9.39162H13.9381V10.4316Z" fill="#CED0D6"/>
    <path d="M6.12674 7.75984H10.007V6.71984H6.12674V7.75984Z" fill="#CED0D6"/>
    <path fill-rule="evenodd" clip-rule="evenodd"
          d="M4.00005 5.6C4.00005 4.71634 4.71639 4 5.60005 4H14.439C15.3227 4 16.039 4.71634 16.039 5.6V14.3817C16.039 15.2653 15.3227 15.9817 14.439 15.9817H5.60005C4.71639 15.9817 4.00005 15.2653 4.00005 14.3817V5.6ZM5.60005 5.04H14.439C14.7483 5.04 14.999 5.29072 14.999 5.6V14.3817C14.999 14.6909 14.7483 14.9417 14.439 14.9417H5.60005C5.29077 14.9417 5.04005 14.6909 5.04005 14.3817V5.6C5.04005 5.29072 5.29077 5.04 5.60005 5.04Z"
          fill="#CED0D6"/>
</svg>
